<?xml version="1.0" standalone="no"?><!DOCTYPE svg PUBLIC "-//W3C//DTD SVG 1.1//EN" "http://www.w3.org/Graphics/SVG/1.1/DTD/svg11.dtd"><svg t="1773923360074" class="icon" viewBox="0 0 1024 1024" version="1.1" xmlns="http://www.w3.org/2000/svg" p-id="4721" xmlns:xlink="http://www.w3.org/1999/xlink" width="200" height="200"><path d="M208 432.924a90 90 0 1 0 180 0 90 90 0 1 0-180 0z" fill="#FFCC66" p-id="4722"></path><path d="M29 858.336c0 66.272 53.724 120 120 120h707.108c66.28 0 120-53.728 120-120V365.804c0-66.276-53.72-120-120-120H149c-66.276 0-120 53.724-120 120v492.532z" fill="#C3EAFF" p-id="4723"></path><path d="M727.788 691.752S898 457.844 898 604.924c0 86 0 0 0 0v304L727.788 691.752z" fill="#4D758A" p-id="4724"></path><path d="M856.108 998.336H149c-77.196 0-140-62.804-140-140V365.804c0-77.196 62.804-140 140-140h707.108c77.196 0 140 62.804 140 140v492.532c0 77.196-62.804 140-140 140zM149 265.804c-55.14 0-100 44.86-100 100v492.532c0 55.14 44.86 100 100 100h707.108c55.14 0 100-44.86 100-100V365.804c0-55.14-44.86-100-100-100H149z" fill="#6E6E96" p-id="4725"></path><path d="M865.952 911.16L898 900.92c-64-89.984-144.128-199.868-267.864-317.928C506.976 446.344 476.348 785.812 276 702.92c-154.988-90.264-114.004 206.172-114.004 206.172l-58.664-0.172 762.62 2.24z" fill="#00A99D" p-id="4726"></path><path d="M200.464 487.128a97.536 97.536 0 1 0 195.072 0 97.536 97.536 0 1 0-195.072 0z" fill="#FCEE21" p-id="4727"></path><path d="M298 604.664c-64.808 0-117.536-52.728-117.536-117.536 0-64.812 52.728-117.536 117.536-117.536s117.536 52.728 117.536 117.536c0 64.808-52.728 117.536-117.536 117.536z m0-195.072c-42.752 0-77.536 34.784-77.536 77.536s34.78 77.536 77.536 77.536 77.536-34.78 77.536-77.536-34.784-77.536-77.536-77.536z" fill="#FBB03B" p-id="4728"></path><path d="M103.332 842.1v-24.812s21.212-137.936 137.94-137.936 83.856 40.448 155.96 23.712C318 740.484 266 824.484 250 908.92h-88.004s-58.664 0-58.664-66.82z" fill="#548096" p-id="4729"></path><path d="M953.764 605.124a42.976 42.976 0 0 1-30.464-12.62L735.868 405.072c-16.828-16.828-16.828-44.104 0-60.932 16.832-16.824 44.1-16.824 60.932 0l187.432 187.428c16.828 16.828 16.828 44.104 0 60.932a42.912 42.912 0 0 1-30.468 12.624z" fill="#F5D3BC" p-id="4730"></path><path d="M953.764 627.508a65.036 65.036 0 0 1-46.28-19.172L720.048 420.904a65.024 65.024 0 0 1-19.176-46.292c0-17.488 6.808-33.932 19.176-46.296a65.052 65.052 0 0 1 46.292-19.172c17.484 0 33.924 6.808 46.292 19.168L1000.06 515.74c12.368 12.368 19.18 28.804 19.18 46.292s-6.812 33.932-19.18 46.3a65.02 65.02 0 0 1-46.296 19.176zM766.336 353.912a20.6 20.6 0 0 0-14.644 6.06 20.58 20.58 0 0 0-6.06 14.644 20.588 20.588 0 0 0 6.06 14.644l187.432 187.428c3.912 3.908 9.108 6.064 14.64 6.064s10.728-2.156 14.648-6.064a20.572 20.572 0 0 0 6.064-14.644 20.568 20.568 0 0 0-6.064-14.636L780.984 359.98a20.576 20.576 0 0 0-14.648-6.068z" fill="#6E6E96" p-id="4731"></path><path d="M431.524 281.984a229.468 229.468 0 1 0 458.936 0 229.468 229.468 0 1 0-458.936 0z" fill="#F0F0FF" p-id="4732"></path><path d="M660.992 533.832c-138.876 0-251.852-112.98-251.852-251.852S522.116 30.132 660.992 30.132c138.868 0 251.852 112.98 251.852 251.848S799.86 533.832 660.992 533.832z m0-458.936c-114.188 0-207.088 92.896-207.088 207.084s92.9 207.088 207.088 207.088 207.084-92.9 207.084-207.088S775.18 74.896 660.992 74.896z" fill="#6E6E96" p-id="4733"></path><path d="M514.46 281.984a146.532 146.532 0 1 0 293.064 0 146.532 146.532 0 1 0-293.064 0z" fill="#7FCDEE" p-id="4734"></path><path d="M659.68 197.216c60.112 0 110.28 42.572 122.012 99.204 1.7-8.2 2.6-16.696 2.6-25.404 0-68.82-55.788-124.608-124.608-124.608S535.08 202.196 535.08 271.016c0 8.708 0.9 17.204 2.596 25.404 11.724-56.636 61.896-99.204 122.004-99.204z" fill="#0C6D95" opacity=".3" p-id="4735"></path><path d="M660.992 450.896c-93.136 0-168.908-75.776-168.908-168.912s75.772-168.908 168.908-168.908c93.14 0 168.908 75.772 168.908 168.908s-75.772 168.912-168.908 168.912z m0-293.06c-68.452 0-124.144 55.692-124.144 124.144 0 68.456 55.692 124.148 124.144 124.148s124.144-55.692 124.144-124.148c0-68.448-55.692-124.144-124.144-124.144z" fill="#6E6E96" p-id="4736"></path><path d="M609.084 262.532c0-17.892 22.716-32.4 50.736-32.4 28.016 0 50.736 14.504 50.736 32.4s-20.14 15.744-48.156 15.744c-28.028-0.004-53.316 2.148-53.316-15.744z" fill="#D4EEF9" opacity=".5" p-id="4737"></path></svg>